# xmcd
#
# Track frame offsets:
#	150
#	15560
#	31729
#	48424
#	67728
#	84341
#	100091
#	116068
#	134495
#	151643
#	166969
#	181858
#	197806
#
# Disc length: 2830 seconds
#
# Revision: 1
# Processed by: cddbd v1.5.2PL0 Copyright (c) Steve Scherf et al.
# Submitted via: audiograbber 1.83.01
#
DISCID=960b0c0d
DTITLE=LoslonelyBoys - Rockpango
DYEAR=2011
DGENRE=Country
TTITLE0=american idle
TTITLE1=fly away
TTITLE2=love in my veins
TTITLE3=road to nowhere
TTITLE4=16 monkeys
TTITLE5=rockpango
TTITLE6=smile
TTITLE7=baby girl
TTITLE8=change the world
TTITLE9=porn star
TTITLE10=believe
TTITLE11=smile.2
TTITLE12=judgement
EXTD=
EXTT0=
EXTT1=
EXTT2=
EXTT3=
EXTT4=
EXTT5=
EXTT6=
EXTT7=
EXTT8=
EXTT9=
EXTT10=
EXTT11=
EXTT12=
PLAYORDER=
